<svg xmlns="http://www.w3.org/2000/svg" viewBox="0 0 224 160" width="224" height="160">
    
    <rect x="0" y="0" width="32" height="32" fill="#0A0B0D"></rect>
    <rect x="32" y="0" width="32" height="32" fill="#0A0B0D"></rect>
    <rect x="64" y="0" width="32" height="32" fill="#0A0B0D"></rect>
    <rect x="0" y="32" width="32" height="32" fill="#0A0B0D"></rect>
    <rect x="0" y="64" width="32" height="32" fill="#0A0B0D"></rect>
    <rect x="32" y="64" width="32" height="32" fill="#0A0B0D"></rect>
    <rect x="64" y="64" width="32" height="32" fill="#0A0B0D"></rect>
    <rect x="0" y="128" width="32" height="32" fill="#0A0B0D"></rect>
    <rect x="32" y="128" width="32" height="32" fill="#0A0B0D"></rect>
    <rect x="64" y="128" width="32" height="32" fill="#0A0B0D"></rect>
    
    <rect x="96" y="0" width="32" height="32" fill="#0A0B0D"></rect>
    <rect x="128" y="0" width="32" height="32" fill="#0A0B0D"></rect>
    <rect x="160" y="0" width="32" height="32" fill="#0A0B0D"></rect>
    <rect x="96" y="32" width="32" height="32" fill="#0A0B0D"></rect>
    <rect x="192" y="32" width="32" height="32" fill="#0A0B0D"></rect>
    <rect x="96" y="64" width="32" height="32" fill="#0A0B0D"></rect>
    <rect x="128" y="64" width="32" height="32" fill="#0A0B0D"></rect>
    <rect x="160" y="64" width="32" height="32" fill="#0A0B0D"></rect>
    <rect x="96" y="96" width="32" height="32" fill="#0A0B0D"></rect>
    <rect x="192" y="96" width="32" height="32" fill="#0A0B0D"></rect>
    <rect x="96" y="128" width="32" height="32" fill="#0A0B0D"></rect>
    <rect x="128" y="128" width="32" height="32" fill="#0A0B0D"></rect>
    <rect x="160" y="128" width="32" height="32" fill="#0A0B0D"></rect>
  </svg>